<?xml version="1.0" encoding="UTF-8" standalone="no"?>
<svg
   width="32"
   height="32"
   version="1.1"
   id="svg3"
   sodipodi:docname="text.svg"
   inkscape:version="1.4.4 (dcaf3e7d9e, 2026-05-05)"
   xmlns:inkscape="http://www.inkscape.org/namespaces/inkscape"
   xmlns:sodipodi="http://sodipodi.sourceforge.net/DTD/sodipodi-0.dtd"
   xmlns="http://www.w3.org/2000/svg"
   xmlns:svg="http://www.w3.org/2000/svg">
  <sodipodi:namedview
     id="namedview3"
     pagecolor="#ffffff"
     bordercolor="#000000"
     borderopacity="0.25"
     inkscape:showpageshadow="2"
     inkscape:pageopacity="0.0"
     inkscape:pagecheckerboard="0"
     inkscape:deskcolor="#d1d1d1"
     inkscape:zoom="13.729224"
     inkscape:cx="3.6418665"
     inkscape:cy="16.461236"
     inkscape:window-width="1892"
     inkscape:window-height="998"
     inkscape:window-x="0"
     inkscape:window-y="0"
     inkscape:window-maximized="1"
     inkscape:current-layer="svg3" />
  <defs
     id="defs1">
    <filter
       id="a"
       width="1.3888"
       height="1.0883636"
       x="-0.1944"
       y="-0.044181818"
       style="color-interpolation-filters:sRGB">
      <feGaussianBlur
         stdDeviation=".405"
         id="feGaussianBlur1" />
    </filter>
    <filter
       inkscape:collect="always"
       style="color-interpolation-filters:sRGB"
       id="filter6"
       x="-0.159495"
       y="-0.046519375"
       width="1.31899"
       height="1.0930387">
      <feGaussianBlur
         inkscape:collect="always"
         stdDeviation="0.46519375"
         id="feGaussianBlur6" />
    </filter>
  </defs>
  <path
     style="baseline-shift:baseline;display:inline;overflow:visible;opacity:0.2;vector-effect:none;fill:#000000;fill-opacity:1;stroke-linecap:square;stroke-linejoin:round;paint-order:stroke markers fill;filter:url(#filter6);enable-background:accumulate;stop-color:#000000"
     d="m 14.528,4.528 a 2.0002,2.0002 0 0 0 -2,2 v 1 a 2.0002,2.0002 0 0 0 1,1 v 16 a 2.0002,2.0002 0 0 0 -1,1 v 1 a 2.0002,2.0002 0 0 0 2,2 h 3 a 2.0002,2.0002 0 0 0 2,-2 v -1 a 2.0002,2.0002 0 0 0 -1,-1 v -16 a 2.0002,2.0002 0 0 0 1,-1 v -1 a 2.0002,2.0002 0 0 0 -2,-2 z"
     id="path5" />
  <path
     d="m 14,6 v 1 h 1 v 18 h -1 v 1 h 3 V 25 H 16 V 7 h 1 V 6 Z"
     style="display:inline;opacity:1;fill:#ff0000;fill-opacity:1;stroke:#00ff00;stroke-width:4;stroke-linecap:square;stroke-linejoin:round;stroke-miterlimit:4;stroke-dasharray:none;stroke-opacity:1;paint-order:stroke markers fill"
     id="path3" />
  <path
     id="hotspot"
     d="m 16,15 h -1 v 1 h 1 z"
     display="none"
     fill="#333333"
     stroke-width="1.18965" />
</svg>
